<mxfile host="65bd71144e">
    <diagram name="Seite-1" id="pOqvI1cBqr-qqXXVeGFv">
        <mxGraphModel dx="1195" dy="865" grid="1" gridSize="10" guides="1" tooltips="1" connect="1" arrows="1" fold="1" page="1" pageScale="1" pageWidth="827" pageHeight="1169" math="0" shadow="1">
            <root>
                <mxCell id="0"/>
                <mxCell id="1" parent="0"/>
                <mxCell id="zaIucY2yGyk8i7d1ZHmE-216" value="&lt;font style=&quot;font-size: 24px;&quot;&gt;Sport&lt;/font&gt;" style="whiteSpace=wrap;html=1;" parent="1" vertex="1">
                    <mxGeometry x="430" y="70" width="120" height="60" as="geometry"/>
                </mxCell>
                <mxCell id="zaIucY2yGyk8i7d1ZHmE-217" value="n" style="text;html=1;align=center;verticalAlign=middle;resizable=0;points=[];autosize=1;strokeColor=none;fillColor=none;" parent="1" vertex="1">
                    <mxGeometry x="404" y="575" width="30" height="30" as="geometry"/>
                </mxCell>
                <mxCell id="zaIucY2yGyk8i7d1ZHmE-218" value="n" style="text;html=1;align=center;verticalAlign=middle;resizable=0;points=[];autosize=1;strokeColor=none;fillColor=none;" parent="1" vertex="1">
                    <mxGeometry x="240" y="306" width="30" height="30" as="geometry"/>
                </mxCell>
                <mxCell id="zaIucY2yGyk8i7d1ZHmE-219" value="n" style="text;html=1;align=center;verticalAlign=middle;resizable=0;points=[];autosize=1;strokeColor=none;fillColor=none;" parent="1" vertex="1">
                    <mxGeometry x="400" y="210" width="30" height="30" as="geometry"/>
                </mxCell>
                <mxCell id="zaIucY2yGyk8i7d1ZHmE-220" value="n" style="text;html=1;align=center;verticalAlign=middle;resizable=0;points=[];autosize=1;strokeColor=none;fillColor=none;" parent="1" vertex="1">
                    <mxGeometry x="490" y="180" width="30" height="30" as="geometry"/>
                </mxCell>
                <mxCell id="zaIucY2yGyk8i7d1ZHmE-221" value="n" style="text;html=1;align=center;verticalAlign=middle;resizable=0;points=[];autosize=1;strokeColor=none;fillColor=none;" parent="1" vertex="1">
                    <mxGeometry x="630" y="210" width="30" height="30" as="geometry"/>
                </mxCell>
                <mxCell id="zaIucY2yGyk8i7d1ZHmE-222" value="n" style="text;html=1;align=center;verticalAlign=middle;resizable=0;points=[];autosize=1;strokeColor=none;fillColor=none;" parent="1" vertex="1">
                    <mxGeometry x="240" y="503" width="30" height="30" as="geometry"/>
                </mxCell>
                <mxCell id="zaIucY2yGyk8i7d1ZHmE-223" value="1" style="text;html=1;align=center;verticalAlign=middle;resizable=0;points=[];autosize=1;strokeColor=none;fillColor=none;" parent="1" vertex="1">
                    <mxGeometry x="298" y="576" width="30" height="30" as="geometry"/>
                </mxCell>
                <mxCell id="zaIucY2yGyk8i7d1ZHmE-224" value="1" style="text;html=1;align=center;verticalAlign=middle;resizable=0;points=[];autosize=1;strokeColor=none;fillColor=none;" parent="1" vertex="1">
                    <mxGeometry x="490" y="126" width="30" height="30" as="geometry"/>
                </mxCell>
                <mxCell id="zaIucY2yGyk8i7d1ZHmE-225" value="1" style="text;html=1;align=center;verticalAlign=middle;resizable=0;points=[];autosize=1;strokeColor=none;fillColor=none;" parent="1" vertex="1">
                    <mxGeometry x="550" y="210" width="30" height="30" as="geometry"/>
                </mxCell>
                <mxCell id="zaIucY2yGyk8i7d1ZHmE-226" value="1" style="text;html=1;align=center;verticalAlign=middle;resizable=0;points=[];autosize=1;strokeColor=none;fillColor=none;" parent="1" vertex="1">
                    <mxGeometry x="490" y="270" width="30" height="30" as="geometry"/>
                </mxCell>
                <mxCell id="zaIucY2yGyk8i7d1ZHmE-227" value="1" style="text;html=1;align=center;verticalAlign=middle;resizable=0;points=[];autosize=1;strokeColor=none;fillColor=none;" parent="1" vertex="1">
                    <mxGeometry x="300" y="210" width="30" height="30" as="geometry"/>
                </mxCell>
                <mxCell id="zaIucY2yGyk8i7d1ZHmE-228" value="1" style="text;html=1;align=center;verticalAlign=middle;resizable=0;points=[];autosize=1;strokeColor=none;fillColor=none;" parent="1" vertex="1">
                    <mxGeometry x="240" y="265" width="30" height="30" as="geometry"/>
                </mxCell>
                <mxCell id="zaIucY2yGyk8i7d1ZHmE-229" value="1" style="text;html=1;align=center;verticalAlign=middle;resizable=0;points=[];autosize=1;strokeColor=none;fillColor=none;" parent="1" vertex="1">
                    <mxGeometry x="240" y="547" width="30" height="30" as="geometry"/>
                </mxCell>
                <mxCell id="zaIucY2yGyk8i7d1ZHmE-230" value="1" style="text;html=1;align=center;verticalAlign=middle;resizable=0;points=[];autosize=1;strokeColor=none;fillColor=none;" parent="1" vertex="1">
                    <mxGeometry x="240" y="383" width="30" height="30" as="geometry"/>
                </mxCell>
                <mxCell id="zaIucY2yGyk8i7d1ZHmE-232" value="&lt;font style=&quot;font-size: 24px;&quot;&gt;Challenge Sport&lt;/font&gt;" style="whiteSpace=wrap;html=1;" parent="1" vertex="1">
                    <mxGeometry x="430" y="210" width="120" height="60" as="geometry"/>
                </mxCell>
                <mxCell id="eCoslSz5Ok3hIy_NYkCv-2" style="edgeStyle=orthogonalEdgeStyle;rounded=0;orthogonalLoop=1;jettySize=auto;html=1;entryX=0.5;entryY=0;entryDx=0;entryDy=0;endArrow=none;endFill=0;" parent="1" source="zaIucY2yGyk8i7d1ZHmE-233" target="eCoslSz5Ok3hIy_NYkCv-1" edge="1">
                    <mxGeometry relative="1" as="geometry"/>
                </mxCell>
                <mxCell id="zaIucY2yGyk8i7d1ZHmE-233" value="Team" style="whiteSpace=wrap;html=1;fontSize=25;" parent="1" vertex="1">
                    <mxGeometry x="180" y="330" width="120" height="60" as="geometry"/>
                </mxCell>
                <mxCell id="zaIucY2yGyk8i7d1ZHmE-234" value="Challenge Sport&lt;br style=&quot;font-size: 17px;&quot;&gt;Bonus" style="whiteSpace=wrap;html=1;fontSize=17;" parent="1" vertex="1">
                    <mxGeometry x="655" y="210" width="120" height="60" as="geometry"/>
                </mxCell>
                <mxCell id="zaIucY2yGyk8i7d1ZHmE-235" value="&lt;font style=&quot;font-size: 24px;&quot;&gt;Challenge&lt;/font&gt;" style="whiteSpace=wrap;html=1;" parent="1" vertex="1">
                    <mxGeometry x="180" y="210" width="120" height="60" as="geometry"/>
                </mxCell>
                <mxCell id="zaIucY2yGyk8i7d1ZHmE-236" value="&lt;font style=&quot;font-size: 24px;&quot;&gt;Activity&lt;/font&gt;" style="whiteSpace=wrap;html=1;" parent="1" vertex="1">
                    <mxGeometry x="430" y="570" width="120" height="60" as="geometry"/>
                </mxCell>
                <mxCell id="eCoslSz5Ok3hIy_NYkCv-3" style="edgeStyle=orthogonalEdgeStyle;rounded=0;orthogonalLoop=1;jettySize=auto;html=1;entryX=0.5;entryY=1;entryDx=0;entryDy=0;endArrow=none;endFill=0;" parent="1" source="zaIucY2yGyk8i7d1ZHmE-237" target="eCoslSz5Ok3hIy_NYkCv-1" edge="1">
                    <mxGeometry relative="1" as="geometry"/>
                </mxCell>
                <mxCell id="eCoslSz5Ok3hIy_NYkCv-5" style="edgeStyle=orthogonalEdgeStyle;rounded=0;orthogonalLoop=1;jettySize=auto;html=1;entryX=0;entryY=0.5;entryDx=0;entryDy=0;endArrow=none;endFill=0;" parent="1" source="zaIucY2yGyk8i7d1ZHmE-237" target="zaIucY2yGyk8i7d1ZHmE-236" edge="1">
                    <mxGeometry relative="1" as="geometry"/>
                </mxCell>
                <mxCell id="zaIucY2yGyk8i7d1ZHmE-237" value="&lt;font style=&quot;font-size: 24px;&quot;&gt;Member&lt;/font&gt;" style="whiteSpace=wrap;html=1;" parent="1" vertex="1">
                    <mxGeometry x="180" y="570" width="120" height="60" as="geometry"/>
                </mxCell>
                <mxCell id="zaIucY2yGyk8i7d1ZHmE-239" value="" style="endArrow=none;html=1;rounded=0;exitX=0.5;exitY=0;exitDx=0;exitDy=0;" parent="1" source="zaIucY2yGyk8i7d1ZHmE-236" edge="1">
                    <mxGeometry width="50" height="50" relative="1" as="geometry">
                        <mxPoint x="440" y="320" as="sourcePoint"/>
                        <mxPoint x="490" y="270" as="targetPoint"/>
                    </mxGeometry>
                </mxCell>
                <mxCell id="zaIucY2yGyk8i7d1ZHmE-242" value="" style="endArrow=none;html=1;rounded=0;exitX=0.5;exitY=0;exitDx=0;exitDy=0;" parent="1" source="zaIucY2yGyk8i7d1ZHmE-233" edge="1">
                    <mxGeometry width="50" height="50" relative="1" as="geometry">
                        <mxPoint x="190" y="320" as="sourcePoint"/>
                        <mxPoint x="240" y="270" as="targetPoint"/>
                    </mxGeometry>
                </mxCell>
                <mxCell id="zaIucY2yGyk8i7d1ZHmE-243" value="" style="endArrow=none;html=1;rounded=0;entryX=0;entryY=0.5;entryDx=0;entryDy=0;" parent="1" target="zaIucY2yGyk8i7d1ZHmE-234" edge="1">
                    <mxGeometry width="50" height="50" relative="1" as="geometry">
                        <mxPoint x="550" y="240" as="sourcePoint"/>
                        <mxPoint x="600" y="190" as="targetPoint"/>
                    </mxGeometry>
                </mxCell>
                <mxCell id="zaIucY2yGyk8i7d1ZHmE-244" value="" style="endArrow=none;html=1;rounded=0;entryX=0;entryY=0.5;entryDx=0;entryDy=0;" parent="1" target="zaIucY2yGyk8i7d1ZHmE-232" edge="1">
                    <mxGeometry width="50" height="50" relative="1" as="geometry">
                        <mxPoint x="300" y="240" as="sourcePoint"/>
                        <mxPoint x="350" y="190" as="targetPoint"/>
                    </mxGeometry>
                </mxCell>
                <mxCell id="zaIucY2yGyk8i7d1ZHmE-245" value="" style="endArrow=none;html=1;rounded=0;exitX=0.5;exitY=0;exitDx=0;exitDy=0;entryX=0.5;entryY=1;entryDx=0;entryDy=0;" parent="1" source="zaIucY2yGyk8i7d1ZHmE-232" target="zaIucY2yGyk8i7d1ZHmE-216" edge="1">
                    <mxGeometry width="50" height="50" relative="1" as="geometry">
                        <mxPoint x="444" y="180" as="sourcePoint"/>
                        <mxPoint x="494" y="130" as="targetPoint"/>
                        <Array as="points">
                            <mxPoint x="490" y="180"/>
                        </Array>
                    </mxGeometry>
                </mxCell>
                <mxCell id="eCoslSz5Ok3hIy_NYkCv-1" value="&lt;div&gt;Team&lt;/div&gt;&lt;div&gt;Member&lt;br&gt;&lt;/div&gt;" style="whiteSpace=wrap;html=1;fontSize=24;" parent="1" vertex="1">
                    <mxGeometry x="180" y="451" width="120" height="60" as="geometry"/>
                </mxCell>
                <mxCell id="eCoslSz5Ok3hIy_NYkCv-4" value="n" style="text;html=1;align=center;verticalAlign=middle;resizable=0;points=[];autosize=1;strokeColor=none;fillColor=none;" parent="1" vertex="1">
                    <mxGeometry x="240" y="427" width="30" height="30" as="geometry"/>
                </mxCell>
                <mxCell id="eCoslSz5Ok3hIy_NYkCv-9" value="n" style="text;html=1;align=center;verticalAlign=middle;resizable=0;points=[];autosize=1;strokeColor=none;fillColor=none;" parent="1" vertex="1">
                    <mxGeometry x="490" y="544" width="30" height="30" as="geometry"/>
                </mxCell>
                <mxCell id="UYqeRXASDUTKoVCL1Xcu-2" style="edgeStyle=orthogonalEdgeStyle;rounded=0;orthogonalLoop=1;jettySize=auto;html=1;entryX=0;entryY=0.5;entryDx=0;entryDy=0;endArrow=none;endFill=0;" parent="1" source="UYqeRXASDUTKoVCL1Xcu-1" target="zaIucY2yGyk8i7d1ZHmE-237" edge="1">
                    <mxGeometry relative="1" as="geometry">
                        <Array as="points">
                            <mxPoint x="80" y="600"/>
                        </Array>
                    </mxGeometry>
                </mxCell>
                <mxCell id="UYqeRXASDUTKoVCL1Xcu-3" style="edgeStyle=orthogonalEdgeStyle;rounded=0;orthogonalLoop=1;jettySize=auto;html=1;entryX=0;entryY=0.5;entryDx=0;entryDy=0;endArrow=none;endFill=0;" parent="1" source="UYqeRXASDUTKoVCL1Xcu-1" target="zaIucY2yGyk8i7d1ZHmE-235" edge="1">
                    <mxGeometry relative="1" as="geometry">
                        <Array as="points">
                            <mxPoint x="80" y="240"/>
                        </Array>
                    </mxGeometry>
                </mxCell>
                <mxCell id="WaG0veUZTRqubM51o-4Q-1" style="edgeStyle=orthogonalEdgeStyle;rounded=0;orthogonalLoop=1;jettySize=auto;html=1;entryX=0;entryY=0.5;entryDx=0;entryDy=0;endArrow=none;endFill=0;" parent="1" source="UYqeRXASDUTKoVCL1Xcu-1" target="zaIucY2yGyk8i7d1ZHmE-233" edge="1">
                    <mxGeometry relative="1" as="geometry"/>
                </mxCell>
                <mxCell id="UYqeRXASDUTKoVCL1Xcu-1" value="Image" style="whiteSpace=wrap;html=1;fontSize=24;" parent="1" vertex="1">
                    <mxGeometry x="20" y="391" width="120" height="60" as="geometry"/>
                </mxCell>
                <mxCell id="UYqeRXASDUTKoVCL1Xcu-4" value="n" style="text;html=1;align=center;verticalAlign=middle;resizable=0;points=[];autosize=1;strokeColor=none;fillColor=none;" parent="1" vertex="1">
                    <mxGeometry x="150" y="235" width="30" height="30" as="geometry"/>
                </mxCell>
                <mxCell id="UYqeRXASDUTKoVCL1Xcu-5" value="n" style="text;html=1;align=center;verticalAlign=middle;resizable=0;points=[];autosize=1;strokeColor=none;fillColor=none;" parent="1" vertex="1">
                    <mxGeometry x="155" y="573" width="30" height="30" as="geometry"/>
                </mxCell>
                <mxCell id="UYqeRXASDUTKoVCL1Xcu-6" value="1" style="text;html=1;align=center;verticalAlign=middle;resizable=0;points=[];autosize=1;strokeColor=none;fillColor=none;" parent="1" vertex="1">
                    <mxGeometry x="80" y="361" width="30" height="30" as="geometry"/>
                </mxCell>
                <mxCell id="UYqeRXASDUTKoVCL1Xcu-7" value="1" style="text;html=1;align=center;verticalAlign=middle;resizable=0;points=[];autosize=1;strokeColor=none;fillColor=none;" parent="1" vertex="1">
                    <mxGeometry x="80" y="450" width="30" height="30" as="geometry"/>
                </mxCell>
                <mxCell id="WaG0veUZTRqubM51o-4Q-2" value="1" style="text;html=1;align=center;verticalAlign=middle;resizable=0;points=[];autosize=1;strokeColor=none;fillColor=none;" parent="1" vertex="1">
                    <mxGeometry x="130" y="413" width="30" height="30" as="geometry"/>
                </mxCell>
                <mxCell id="WaG0veUZTRqubM51o-4Q-3" value="n" style="text;html=1;align=center;verticalAlign=middle;resizable=0;points=[];autosize=1;strokeColor=none;fillColor=none;" parent="1" vertex="1">
                    <mxGeometry x="155" y="331" width="30" height="30" as="geometry"/>
                </mxCell>
                <mxCell id="4" style="edgeStyle=none;html=1;entryX=0.5;entryY=1;entryDx=0;entryDy=0;endArrow=none;endFill=0;" edge="1" parent="1" source="3" target="zaIucY2yGyk8i7d1ZHmE-234">
                    <mxGeometry relative="1" as="geometry"/>
                </mxCell>
                <mxCell id="3" value="Bonus" style="whiteSpace=wrap;html=1;fontSize=24;" vertex="1" parent="1">
                    <mxGeometry x="655" y="336" width="120" height="60" as="geometry"/>
                </mxCell>
                <mxCell id="5" value="1" style="text;html=1;align=center;verticalAlign=middle;resizable=0;points=[];autosize=1;strokeColor=none;fillColor=none;" vertex="1" parent="1">
                    <mxGeometry x="689" y="307" width="30" height="30" as="geometry"/>
                </mxCell>
                <mxCell id="6" value="n" style="text;html=1;align=center;verticalAlign=middle;resizable=0;points=[];autosize=1;strokeColor=none;fillColor=none;" vertex="1" parent="1">
                    <mxGeometry x="689" y="270" width="30" height="30" as="geometry"/>
                </mxCell>
            </root>
        </mxGraphModel>
    </diagram>
</mxfile>